<?xml version="1.0" encoding="UTF-8" standalone="no"?>
<!-- Created with Inkscape (http://www.inkscape.org/) -->

<svg
   width="210mm"
   height="84mm"
   viewBox="0 0 210 84"
   version="1.1"
   id="svg1"
   xml:space="preserve"
   inkscape:version="1.3.2 (091e20e, 2023-11-25, custom)"
   sodipodi:docname="Logo - copia.svg"
   xmlns:inkscape="http://www.inkscape.org/namespaces/inkscape"
   xmlns:sodipodi="http://sodipodi.sourceforge.net/DTD/sodipodi-0.dtd"
   xmlns="http://www.w3.org/2000/svg"
   xmlns:svg="http://www.w3.org/2000/svg"><sodipodi:namedview
     id="namedview1"
     pagecolor="#ffffff"
     bordercolor="#000000"
     borderopacity="0.5254902"
     inkscape:showpageshadow="2"
     inkscape:pageopacity="0.0"
     inkscape:pagecheckerboard="0"
     inkscape:deskcolor="#d1d1d1"
     inkscape:document-units="mm"
     inkscape:zoom="0.5"
     inkscape:cx="420"
     inkscape:cy="429"
     inkscape:window-width="1280"
     inkscape:window-height="657"
     inkscape:window-x="-8"
     inkscape:window-y="-8"
     inkscape:window-maximized="1"
     inkscape:current-layer="layer1" /><defs
     id="defs1"><inkscape:path-effect
       effect="fillet_chamfer"
       id="path-effect14"
       is_visible="true"
       lpeversion="1"
       nodesatellites_param="F,0,0,1,0,1.4553591,0,1 @ F,0,0,1,0,1.7468957,0,1 @ F,0,0,1,0,1.1289271,0,1 @ F,0,0,1,0,1.9554687,0,1 @ F,0,0,1,0,0.95464908,0,1 @ F,0,0,1,0,1.2749134,0,1 @ F,0,0,1,0,1.4847408,0,1"
       radius="0"
       unit="px"
       method="auto"
       mode="F"
       chamfer_steps="1"
       flexible="false"
       use_knot_distance="true"
       apply_no_radius="true"
       apply_with_radius="true"
       only_selected="false"
       hide_knots="false" /><inkscape:path-effect
       effect="fillet_chamfer"
       id="path-effect12"
       is_visible="true"
       lpeversion="1"
       nodesatellites_param="F,0,0,1,0,1.013917,0,1 @ F,0,0,1,0,1.2310673,0,1 @ F,0,0,1,0,1.1962984,0,1 @ F,0,0,1,0,2.3560362,0,1 @ F,0,0,1,0,0.81808556,0,1 @ F,0,0,1,0,0.87128968,0,1 @ F,0,0,1,0,0.58553142,0,1"
       radius="0"
       unit="px"
       method="auto"
       mode="F"
       chamfer_steps="1"
       flexible="false"
       use_knot_distance="true"
       apply_no_radius="true"
       apply_with_radius="true"
       only_selected="false"
       hide_knots="false" /><inkscape:path-effect
       effect="fillet_chamfer"
       id="path-effect2"
       is_visible="true"
       lpeversion="1"
       nodesatellites_param="F,0,0,1,0,1.4553591,0,1 @ F,0,0,1,0,1.7468957,0,1 @ F,0,0,1,0,1.1289271,0,1 @ F,0,0,1,0,1.9554687,0,1 @ F,0,0,1,0,0.95464908,0,1 @ F,0,0,1,0,1.2749134,0,1 @ F,0,0,1,0,1.4847408,0,1"
       radius="0"
       unit="px"
       method="auto"
       mode="F"
       chamfer_steps="1"
       flexible="false"
       use_knot_distance="true"
       apply_no_radius="true"
       apply_with_radius="true"
       only_selected="false"
       hide_knots="false" /><inkscape:path-effect
       effect="fillet_chamfer"
       id="path-effect1"
       is_visible="true"
       lpeversion="1"
       nodesatellites_param="F,0,0,1,0,1.013917,0,1 @ F,0,0,1,0,1.2310673,0,1 @ F,0,0,1,0,1.1962984,0,1 @ F,0,0,1,0,2.3560362,0,1 @ F,0,0,1,0,0.81808556,0,1 @ F,0,0,1,0,0.87128968,0,1 @ F,0,0,1,0,0.58553142,0,1"
       radius="0"
       unit="px"
       method="auto"
       mode="F"
       chamfer_steps="1"
       flexible="false"
       use_knot_distance="true"
       apply_no_radius="true"
       apply_with_radius="true"
       only_selected="false"
       hide_knots="false" /><inkscape:path-effect
       effect="fillet_chamfer"
       id="path-effect24"
       is_visible="true"
       lpeversion="1"
       nodesatellites_param="F,0,0,1,0,1.7008232,0,1 @ F,0,0,1,0,0,0,1 @ F,0,0,1,0,0,0,1 @ F,0,0,1,0,0,0,1 @ F,0,0,1,0,0,0,1 @ F,0,0,1,0,0,0,1 @ F,0,0,1,0,1.3163096,0,1"
       radius="0"
       unit="px"
       method="auto"
       mode="F"
       chamfer_steps="1"
       flexible="false"
       use_knot_distance="true"
       apply_no_radius="true"
       apply_with_radius="true"
       only_selected="false"
       hide_knots="false" /><inkscape:path-effect
       effect="fillet_chamfer"
       id="path-effect19"
       is_visible="true"
       lpeversion="1"
       nodesatellites_param="F,0,0,1,0,0,0,1 @ F,0,0,1,0,0,0,1 @ F,0,0,1,0,0,0,1 @ F,0,0,1,0,0,0,1 @ F,0,0,1,0,0,0,1 @ F,0,0,1,0,0,0,1 @ F,0,0,1,0,0,0,1"
       radius="0"
       unit="px"
       method="auto"
       mode="F"
       chamfer_steps="1"
       flexible="false"
       use_knot_distance="true"
       apply_no_radius="true"
       apply_with_radius="true"
       only_selected="false"
       hide_knots="false" /><inkscape:path-effect
       effect="fillet_chamfer"
       id="path-effect18"
       is_visible="true"
       lpeversion="1"
       nodesatellites_param="F,0,0,1,0,0,0,1 @ F,0,0,1,0,0,0,1 @ F,0,0,1,0,0,0,1 @ F,0,0,1,0,0,0,1 @ F,0,0,1,0,0,0,1 @ F,0,0,1,0,0,0,1 @ F,0,0,1,0,0,0,1"
       radius="0"
       unit="px"
       method="auto"
       mode="F"
       chamfer_steps="1"
       flexible="false"
       use_knot_distance="true"
       apply_no_radius="true"
       apply_with_radius="true"
       only_selected="false"
       hide_knots="false" /><inkscape:path-effect
       effect="fillet_chamfer"
       id="path-effect17"
       is_visible="true"
       lpeversion="1"
       nodesatellites_param="F,0,0,1,0,0,0,1 @ F,0,0,1,0,0,0,1 @ F,0,0,1,0,0,0,1 @ F,0,0,1,0,0,0,1 @ F,0,0,1,0,0,0,1 @ F,0,0,1,0,0,0,1 @ F,0,0,1,0,0,0,1"
       radius="0"
       unit="px"
       method="auto"
       mode="F"
       chamfer_steps="1"
       flexible="false"
       use_knot_distance="true"
       apply_no_radius="true"
       apply_with_radius="true"
       only_selected="false"
       hide_knots="false" /><inkscape:path-effect
       effect="fillet_chamfer"
       id="path-effect16"
       is_visible="true"
       lpeversion="1"
       nodesatellites_param="F,0,0,1,0,0,0,1 @ F,0,0,1,0,0,0,1 @ F,0,0,1,0,0,0,1 @ F,0,0,1,0,0,0,1 @ F,0,0,1,0,0,0,1 @ F,0,0,1,0,0,0,1 @ F,0,0,1,0,0,0,1"
       radius="0"
       unit="px"
       method="auto"
       mode="F"
       chamfer_steps="1"
       flexible="false"
       use_knot_distance="true"
       apply_no_radius="true"
       apply_with_radius="true"
       only_selected="false"
       hide_knots="false" /><rect
       x="126.5"
       y="750"
       width="30"
       height="14"
       id="rect39" /><inkscape:perspective
       sodipodi:type="inkscape:persp3d"
       inkscape:vp_x="0 : -64.500002 : 1"
       inkscape:vp_y="0 : 999.99994 : 0"
       inkscape:vp_z="210 : -64.500002 : 1"
       inkscape:persp3d-origin="105 : -113.99996 : 1"
       id="perspective22" /><rect
       x="70"
       y="690"
       width="7"
       height="150"
       id="rect9" /></defs><g
     inkscape:label="Capa 1"
     inkscape:groupmode="layer"
     id="layer1"><path
       style="fill:none;stroke:#000000;stroke-width:1.72178;stroke-opacity:1"
       d=""
       id="path5"
       transform="scale(0.26458333)" /><text
       xml:space="preserve"
       style="font-size:3.175px;fill:#000000;fill-opacity:0;stroke:#000000;stroke-width:0.264583;stroke-opacity:1"
       x="32.808334"
       y="196.84999"
       id="text5"><tspan
         sodipodi:role="line"
         id="tspan5"
         style="stroke-width:0.264583"
         x="32.808334"
         y="196.84999" /></text><text
       xml:space="preserve"
       style="font-size:3.175px;fill:#000000;fill-opacity:0;stroke:#000000;stroke-width:0.264583;stroke-opacity:1"
       x="31.805073"
       y="205.79753"
       id="text6"><tspan
         sodipodi:role="line"
         id="tspan6"
         style="stroke-width:0.264583"
         x="31.805073"
         y="205.79753" /><tspan
         sodipodi:role="line"
         style="stroke-width:0.264583"
         id="tspan7"
         x="31.805073"
         y="209.76628" /></text><text
       xml:space="preserve"
       transform="scale(0.26458333)"
       id="text9"
       style="white-space:pre;shape-inside:url(#rect9);fill:#34d5ba;fill-opacity:0.774436;stroke:none;stroke-opacity:0.992481"><tspan
         x="70"
         y="850.94796"
         id="tspan8"><tspan
           dx="0 7.2070312"
           id="tspan4">a
</tspan></tspan><tspan
         x="70"
         y="865.94796"
         id="tspan9">1</tspan></text><text
       xml:space="preserve"
       style="font-style:normal;font-variant:normal;font-weight:normal;font-stretch:normal;font-size:14.128px;font-family:'Lucida Console';-inkscape-font-specification:'Lucida Console, Normal';font-variant-ligatures:normal;font-variant-caps:normal;font-variant-numeric:normal;font-variant-east-asian:normal;fill:#453399;fill-opacity:1;stroke:#3c00af;stroke-width:0.264583;stroke-opacity:1"
       x="56.31369"
       y="36.669376"
       id="text54"><tspan
         sodipodi:role="line"
         id="tspan54"
         style="stroke-width:0.264583"
         x="56.31369"
         y="36.669376" /></text><g
       id="text10"
       style="font-weight:bold;font-size:42.9474px;font-family:Arial;-inkscape-font-specification:'Arial, Bold';stroke-width:1.69084;paint-order:fill markers stroke"
       transform="scale(0.93526651,1.069214)"
       aria-label="K'oda" /><text
       xml:space="preserve"
       style="font-style:normal;font-variant:normal;font-weight:bold;font-stretch:normal;font-size:25.4px;font-family:Arial;-inkscape-font-specification:'Arial, Bold';font-variant-ligatures:normal;font-variant-caps:normal;font-variant-numeric:normal;font-variant-east-asian:normal;fill:#000000;fill-opacity:1;stroke:none;stroke-width:1;stroke-dasharray:none;stroke-opacity:1;paint-order:fill markers stroke"
       x="125.14792"
       y="47.360416"
       id="text13"><tspan
         sodipodi:role="line"
         id="tspan13"
         style="stroke-width:1"
         x="125.14792"
         y="47.360416" /></text><text
       xml:space="preserve"
       style="font-style:normal;font-variant:normal;font-weight:bold;font-stretch:normal;font-size:25.4px;font-family:Arial;-inkscape-font-specification:'Arial, Bold';font-variant-ligatures:normal;font-variant-caps:normal;font-variant-numeric:normal;font-variant-east-asian:normal;fill:#000000;fill-opacity:1;stroke:none;stroke-width:0.264583;stroke-dasharray:none;stroke-opacity:1;paint-order:fill markers stroke"
       x="87.841667"
       y="111.125"
       id="text31"><tspan
         sodipodi:role="line"
         id="tspan31"
         style="stroke-width:0.264583"
         x="87.841667"
         y="111.125" /></text><text
       xml:space="preserve"
       style="font-style:normal;font-variant:normal;font-weight:normal;font-stretch:normal;font-size:25.4px;font-family:Bahnschrift;-inkscape-font-specification:'Bahnschrift, @wght=700,wdth=75.0';font-variant-ligatures:normal;font-variant-caps:normal;font-variant-numeric:normal;font-variant-east-asian:normal;font-variation-settings:'wdth' 75, 'wght' 700;fill:#000000;fill-opacity:1;stroke:none;stroke-width:0.264583;stroke-dasharray:none;stroke-opacity:1;paint-order:fill markers stroke"
       x="127.79375"
       y="121.70833"
       id="text33"><tspan
         sodipodi:role="line"
         id="tspan33"
         style="stroke-width:0.264583"
         x="127.79375"
         y="121.70833" /></text><g
       id="g1"
       transform="matrix(1.4452869,0,0,1.4489,-47.761423,-98.410507)"
       style="stroke-width:0.691041"><g
         id="g3"
         style="stroke-width:0.691041"><path
           style="fill:#1f00d0;fill-opacity:1;stroke:none;stroke-width:0.304846;stroke-dasharray:none;stroke-opacity:1;paint-order:fill markers stroke"
           d="M 65.185486,80.012344 40.370007,69.776204 a 2.0710912,2.0710912 171.6882 0 0 -2.094238,0.305957 l -3.816754,3.095081 a 1.9204448,1.9204448 109.0408 0 0 -0.662533,1.919695 l 5.554085,24.291079 a 1.4675303,1.4675303 19.038874 0 0 2.355015,0.812684 l 4.202717,-3.408534 a 1.2602451,1.2602451 107.96733 0 0 0.423342,-1.305444 l -4.619784,-17.21458 a 0.40469749,0.40469749 140.06383 0 1 0.562859,-0.471227 L 58.87918,85.59664 a 0.93339703,0.93339703 173.0493 0 0 0.984737,-0.120051 l 5.471486,-4.438832 a 0.60282097,0.60282097 81.682205 0 0 -0.149917,-1.025413 z"
           id="path10"
           sodipodi:nodetypes="cccccccc"
           transform="matrix(1.0788534,0,0,1.0187333,1.1311367,1.4780671)"
           inkscape:path-effect="#path-effect1"
           inkscape:original-d="M 66.122793,80.398974 39.231957,69.30677 l -5.702124,4.623964 6.345882,27.754046 6.667968,-5.40793 -5.057658,-18.846222 17.923178,8.414855 z" /><path
           style="fill:#000000;fill-opacity:1;stroke:none;stroke-width:0.308181;stroke-dasharray:none;stroke-opacity:1;paint-order:fill markers stroke"
           d="m 28.546016,105.07589 26.73529,9.20019 a 3.4985013,3.4985013 172.45525 0 0 3.098722,-0.41042 l 3.929266,-2.6582 a 1.5754749,1.5754749 110.29708 0 0 0.636647,-1.72135 L 56.737493,86.833647 a 1.4011255,1.4011255 20.295311 0 0 -2.136462,-0.790103 l -4.96998,3.362712 a 1.2726385,1.2726385 109.04273 0 0 -0.49833,1.443758 l 4.915151,15.279516 a 0.60508369,0.60508369 136.77855 0 1 -0.796689,0.7487 l -17.26812,-6.76354 a 2.8232601,2.8232601 173.64948 0 0 -2.612076,0.29071 l -4.995863,3.3812 a 0.72687883,0.72687883 82.449611 0 0 0.170892,1.28929 z"
           id="path10-3"
           sodipodi:nodetypes="cccccccc"
           inkscape:path-effect="#path-effect2"
           inkscape:original-d="m 27.16986,104.60233 29.763273,10.24218 6.311213,-4.26963 -7.023734,-25.627152 -7.380232,4.9935 5.597906,17.401962 -19.837702,-7.769988 z"
           transform="matrix(0.97473383,0,0,1.1032814,6.2339988,-7.5475869)" /><path
           style="font-weight:bold;font-size:42.9474px;font-family:Arial;-inkscape-font-specification:'Arial, Bold';fill:#1f00d1;stroke-width:1.16844;paint-order:fill markers stroke"
           d="M 77.144129,104.78982 V 71.874958 h 6.657154 V 86.491314 L 97.250537,71.874958 H 106.2017 L 93.787013,84.695141 106.87642,104.78982 h -8.613824 l -9.063621,-15.447081 -5.397692,5.500778 v 9.946303 z m 33.083351,-21.217286 -1.19199,-6.12944 v -5.568136 h 6.88207 v 5.568136 l -1.03456,6.12944 z"
           id="path19" /><path
           d="m 116.426,92.530945 q 0,-3.143302 1.20498,-6.084535 1.20498,-2.941233 3.40539,-4.490432 2.21787,-1.549199 4.94218,-1.549199 4.20872,0 6.8981,3.524989 2.68939,3.502537 2.68939,8.868602 0,5.410971 -2.72431,8.98086 -2.70685,3.54745 -6.82825,3.54745 -2.54968,0 -4.87232,-1.48185 -2.3052,-1.48184 -3.51018,-4.333264 Q 116.426,96.63969 116.426,92.530945 Z m 5.02949,0.336782 q 0,3.547441 1.30977,5.433423 1.30977,1.88598 3.23076,1.88598 1.92099,0 3.2133,-1.88598 1.30975,-1.885982 1.30975,-5.478327 0,-3.502537 -1.30975,-5.388518 -1.29231,-1.885982 -3.2133,-1.885982 -1.92099,0 -3.23076,1.885982 -1.30977,1.885981 -1.30977,5.433422 z m 34.96202,11.922093 h -4.55798 v -3.50253 q -1.13513,2.04314 -2.6894,3.05349 -1.53678,0.9879 -3.1085,0.9879 -3.19583,0 -5.48355,-3.30047 -2.27027,-3.322921 -2.27027,-9.250291 0,-6.062083 2.21787,-9.205385 2.21787,-3.165755 5.6058,-3.165755 3.10851,0 5.37878,3.322919 v -11.85474 h 4.90725 z M 143.31986,92.351328 q 0,3.816866 0.82078,5.523231 1.18751,2.469741 3.31807,2.469741 1.69397,0 2.88149,-1.84108 1.18752,-1.86353 1.18752,-5.545683 0,-4.108746 -1.1526,-5.904919 -1.15259,-1.818624 -2.95133,-1.818624 -1.74636,0 -2.93388,1.796173 -1.17005,1.773719 -1.17005,5.321161 z m 21.6024,-4.131197 -4.45321,-1.0328 q 0.75093,-3.457633 2.5846,-5.119092 1.83367,-1.66146 5.44863,-1.66146 3.28315,0 4.88979,1.010347 1.60665,0.987895 2.25281,2.537093 0.6636,1.526748 0.6636,5.635493 l -0.0523,7.364309 q 0,3.143299 0.22704,4.647589 0.24449,1.48185 0.89064,3.18821 H 172.519 q -0.19212,-0.62866 -0.47153,-1.86352 -0.12224,-0.56131 -0.17463,-0.74092 -1.25738,1.57165 -2.68939,2.35747 -1.43201,0.78583 -3.05611,0.78583 -2.86403,0 -4.52306,-1.99825 -1.64157,-1.99824 -1.64157,-5.051732 0,-2.020695 0.75092,-3.592346 0.75094,-1.594103 2.09564,-2.424833 1.36215,-0.853181 3.91183,-1.481842 3.44032,-0.83073 4.76754,-1.549199 v -0.628661 q 0,-1.818624 -0.69854,-2.581999 -0.69854,-0.785824 -2.637,-0.785824 -1.30976,0 -2.04323,0.673563 -0.73347,0.651114 -1.18752,2.312574 z m 6.56628,5.119092 q -0.94303,0.404138 -2.98626,0.965442 -2.04324,0.561305 -2.67192,1.100156 -0.96049,0.875634 -0.96049,2.222764 0,1.324677 0.76839,2.29012 0.76839,0.965445 1.95591,0.965445 1.32723,0 2.53222,-1.12261 0.89065,-0.853182 1.17006,-2.08805 0.19209,-0.808278 0.19209,-3.075946 z"
           id="path20"
           style="font-weight:bold;font-size:42.9474px;font-family:Arial;-inkscape-font-specification:'Arial, Bold';stroke-width:1.16844;paint-order:fill markers stroke" /><text
           xml:space="preserve"
           style="font-style:normal;font-variant:normal;font-weight:bold;font-stretch:normal;font-size:22.3741px;font-family:Arial;-inkscape-font-specification:'Arial, Bold';font-variant-ligatures:normal;font-variant-caps:normal;font-variant-numeric:normal;font-variant-east-asian:normal;fill:#000000;fill-opacity:1;stroke:none;stroke-width:0.182838;stroke-dasharray:none;stroke-opacity:1;paint-order:fill markers stroke"
           x="54.953884"
           y="163.12248"
           id="text32"
           transform="scale(1.3718401,0.72894794)"><tspan
             sodipodi:role="line"
             id="tspan32"
             style="font-style:normal;font-variant:normal;font-weight:normal;font-stretch:normal;font-size:22.3741px;font-family:Bahnschrift;-inkscape-font-specification:'Bahnschrift, @wght=700,wdth=75.0';font-variant-ligatures:normal;font-variant-caps:normal;font-variant-numeric:normal;font-variant-east-asian:normal;font-variation-settings:'wdth' 75, 'wght' 700;stroke-width:0.182838"
             x="54.953884"
             y="163.12248">PERU</tspan></text></g><g
         id="g14"
         style="stroke-width:0.691041"><g
           id="g11"
           style="stroke-width:0.691041"><path
             style="fill:#1f00d0;fill-opacity:1;stroke:none;stroke-width:0.304846;stroke-dasharray:none;stroke-opacity:1;paint-order:fill markers stroke"
             d="M 65.185486,80.012344 40.370007,69.776204 a 2.0710912,2.0710912 171.6882 0 0 -2.094238,0.305957 l -3.816754,3.095081 a 1.9204448,1.9204448 109.0408 0 0 -0.662533,1.919695 l 5.554085,24.291079 a 1.4675303,1.4675303 19.038874 0 0 2.355015,0.812684 l 4.202717,-3.408534 a 1.2602451,1.2602451 107.96733 0 0 0.423342,-1.305444 l -4.619784,-17.21458 a 0.40469749,0.40469749 140.06383 0 1 0.562859,-0.471227 L 58.87918,85.59664 a 0.93339703,0.93339703 173.0493 0 0 0.984737,-0.120051 l 5.471486,-4.438832 a 0.60282097,0.60282097 81.682205 0 0 -0.149917,-1.025413 z"
             id="path3"
             sodipodi:nodetypes="cccccccc"
             transform="matrix(1.0788534,0,0,1.0187333,1.1311367,1.4780671)"
             inkscape:path-effect="#path-effect12"
             inkscape:original-d="M 66.122793,80.398974 39.231957,69.30677 l -5.702124,4.623964 6.345882,27.754046 6.667968,-5.40793 -5.057658,-18.846222 17.923178,8.414855 z" /><path
             style="fill:#000000;fill-opacity:1;stroke:none;stroke-width:0.308181;stroke-dasharray:none;stroke-opacity:1;paint-order:fill markers stroke"
             d="m 28.546016,105.07589 26.73529,9.20019 a 3.4985013,3.4985013 172.45525 0 0 3.098722,-0.41042 l 3.929266,-2.6582 a 1.5754749,1.5754749 110.29708 0 0 0.636647,-1.72135 L 56.737493,86.833647 a 1.4011255,1.4011255 20.295311 0 0 -2.136462,-0.790103 l -4.96998,3.362712 a 1.2726385,1.2726385 109.04273 0 0 -0.49833,1.443758 l 4.915151,15.279516 a 0.60508369,0.60508369 136.77855 0 1 -0.796689,0.7487 l -17.26812,-6.76354 a 2.8232601,2.8232601 173.64948 0 0 -2.612076,0.29071 l -4.995863,3.3812 a 0.72687883,0.72687883 82.449611 0 0 0.170892,1.28929 z"
             id="path4"
             sodipodi:nodetypes="cccccccc"
             inkscape:path-effect="#path-effect14"
             inkscape:original-d="m 27.16986,104.60233 29.763273,10.24218 6.311213,-4.26963 -7.023734,-25.627152 -7.380232,4.9935 5.597906,17.401962 -19.837702,-7.769988 z"
             transform="matrix(0.97473383,0,0,1.1032814,6.2339988,-7.5475869)" /><path
             style="font-weight:bold;font-size:42.9474px;font-family:Arial;-inkscape-font-specification:'Arial, Bold';fill:#1f00d1;stroke-width:1.16844;paint-order:fill markers stroke"
             d="M 77.144129,104.78982 V 71.874958 h 6.657154 V 86.491314 L 97.250537,71.874958 H 106.2017 L 93.787013,84.695141 106.87642,104.78982 h -8.613824 l -9.063621,-15.447081 -5.397692,5.500778 v 9.946303 z m 33.083351,-21.217286 -1.19199,-6.12944 v -5.568136 h 6.88207 v 5.568136 l -1.03456,6.12944 z"
             id="path6" /><path
             d="m 116.426,92.530945 q 0,-3.143302 1.20498,-6.084535 1.20498,-2.941233 3.40539,-4.490432 2.21787,-1.549199 4.94218,-1.549199 4.20872,0 6.8981,3.524989 2.68939,3.502537 2.68939,8.868602 0,5.410971 -2.72431,8.98086 -2.70685,3.54745 -6.82825,3.54745 -2.54968,0 -4.87232,-1.48185 -2.3052,-1.48184 -3.51018,-4.333264 Q 116.426,96.63969 116.426,92.530945 Z m 5.02949,0.336782 q 0,3.547441 1.30977,5.433423 1.30977,1.88598 3.23076,1.88598 1.92099,0 3.2133,-1.88598 1.30975,-1.885982 1.30975,-5.478327 0,-3.502537 -1.30975,-5.388518 -1.29231,-1.885982 -3.2133,-1.885982 -1.92099,0 -3.23076,1.885982 -1.30977,1.885981 -1.30977,5.433422 z m 34.96202,11.922093 h -4.55798 v -3.50253 q -1.13513,2.04314 -2.6894,3.05349 -1.53678,0.9879 -3.1085,0.9879 -3.19583,0 -5.48355,-3.30047 -2.27027,-3.322921 -2.27027,-9.250291 0,-6.062083 2.21787,-9.205385 2.21787,-3.165755 5.6058,-3.165755 3.10851,0 5.37878,3.322919 v -11.85474 h 4.90725 z M 143.31986,92.351328 q 0,3.816866 0.82078,5.523231 1.18751,2.469741 3.31807,2.469741 1.69397,0 2.88149,-1.84108 1.18752,-1.86353 1.18752,-5.545683 0,-4.108746 -1.1526,-5.904919 -1.15259,-1.818624 -2.95133,-1.818624 -1.74636,0 -2.93388,1.796173 -1.17005,1.773719 -1.17005,5.321161 z m 21.6024,-4.131197 -4.45321,-1.0328 q 0.75093,-3.457633 2.5846,-5.119092 1.83367,-1.66146 5.44863,-1.66146 3.28315,0 4.88979,1.010347 1.60665,0.987895 2.25281,2.537093 0.6636,1.526748 0.6636,5.635493 l -0.0523,7.364309 q 0,3.143299 0.22704,4.647589 0.24449,1.48185 0.89064,3.18821 H 172.519 q -0.19212,-0.62866 -0.47153,-1.86352 -0.12224,-0.56131 -0.17463,-0.74092 -1.25738,1.57165 -2.68939,2.35747 -1.43201,0.78583 -3.05611,0.78583 -2.86403,0 -4.52306,-1.99825 -1.64157,-1.99824 -1.64157,-5.051732 0,-2.020695 0.75092,-3.592346 0.75094,-1.594103 2.09564,-2.424833 1.36215,-0.853181 3.91183,-1.481842 3.44032,-0.83073 4.76754,-1.549199 v -0.628661 q 0,-1.818624 -0.69854,-2.581999 -0.69854,-0.785824 -2.637,-0.785824 -1.30976,0 -2.04323,0.673563 -0.73347,0.651114 -1.18752,2.312574 z m 6.56628,5.119092 q -0.94303,0.404138 -2.98626,0.965442 -2.04324,0.561305 -2.67192,1.100156 -0.96049,0.875634 -0.96049,2.222764 0,1.324677 0.76839,2.29012 0.76839,0.965445 1.95591,0.965445 1.32723,0 2.53222,-1.12261 0.89065,-0.853182 1.17006,-2.08805 0.19209,-0.808278 0.19209,-3.075946 z"
             id="path7"
             style="font-weight:bold;font-size:42.9474px;font-family:Arial;-inkscape-font-specification:'Arial, Bold';stroke-width:1.16844;paint-order:fill markers stroke" /><text
             xml:space="preserve"
             style="font-style:normal;font-variant:normal;font-weight:bold;font-stretch:normal;font-size:22.3741px;font-family:Arial;-inkscape-font-specification:'Arial, Bold';font-variant-ligatures:normal;font-variant-caps:normal;font-variant-numeric:normal;font-variant-east-asian:normal;fill:#000000;fill-opacity:1;stroke:none;stroke-width:0.182838;stroke-dasharray:none;stroke-opacity:1;paint-order:fill markers stroke"
             x="54.953884"
             y="163.12248"
             id="text11"
             transform="scale(1.3718401,0.72894794)"><tspan
               sodipodi:role="line"
               id="tspan10"
               style="font-style:normal;font-variant:normal;font-weight:normal;font-stretch:normal;font-size:22.3741px;font-family:Bahnschrift;-inkscape-font-specification:'Bahnschrift, @wght=700,wdth=75.0';font-variant-ligatures:normal;font-variant-caps:normal;font-variant-numeric:normal;font-variant-east-asian:normal;font-variation-settings:'wdth' 75, 'wght' 700;stroke-width:0.182838"
               x="54.953884"
               y="163.12248">PERU</tspan></text></g></g></g></g></svg>
